<?xml version="1.0" encoding="utf-8"?>
<!-- Generator: Adobe Illustrator 27.5.0, SVG Export Plug-In . SVG Version: 6.00 Build 0)  -->
<svg version="1.1" id="Livello_1" xmlns="http://www.w3.org/2000/svg" xmlns:xlink="http://www.w3.org/1999/xlink" x="0px" y="0px"
	 viewBox="0 0 500 509.45" style="enable-background:new 0 0 500 509.45;" xml:space="preserve">
<style type="text/css">
	.st0{fill:#FF5E29;}
	.st1{fill:#FFFAF0;}
	.st2{fill:#252422;}
	.st3{fill:#FFFFFF;}
	.st4{fill:none;stroke:#FFFFFF;stroke-width:0.25;stroke-miterlimit:10;}
</style>
<path class="st0" d="M187.01,156.7c24.5,30.95,21.92,65.13-17.41,91.57L65.77,319.21c-48.36,32.89-5.81,111.56,43.85,81.9
	L382.4,238.6c61.91-36.76,108.34-14.83,110.92,38.05l6.45,135.42c3.22,69.64-28.38,97.37-76.1,97.37
	c-47.72,0-85.77-49.65-43.2-114.79l69-106.4c13.54-20.64-2.58-35.47-16.77-35.47c-12.25,0-21.92,1.29-45.14,32.24l-105.76,138
	c-49.65,65.13-76.74,86.41-134.77,86.41C70.93,509.45,0,426.9,0,263.75C0,96.09,101.24,0,247.63,0
	C370.15,0,451.41,39.98,471.4,108.34c18.06,60.62-70.29,98.67-110.92,45.14L288.9,59.33c-21.28-27.73-63.2-41.27-101.89-24.5
	c-45.14,19.35-42.56,68.36-18.7,98.02L187.01,156.7z"/>
</svg>
